<svg xmlns="http://www.w3.org/2000/svg" width="960" height="176" viewBox="0 0 960 176" role="img" aria-labelledby="title desc"><title id="title">End of file, return to the dwgx.menu navigation</title><desc id="desc">Decorative dwgx.menu panel; not live telemetry.</desc><rect width="960" height="176" fill="#06020f"/><path d="M39.93 39.95 L135.02 41.6 L135.03 41.53 L230.0 41.04 L229.99 41.0 L324.94 41.93 L324.93 42.02 L419.95 40.05" fill="none" stroke="#f0eee6" stroke-width="1.4" stroke-linecap="round" stroke-linejoin="round" opacity="0.6"/><path d="M575.98 45.96 L662.03 49.41 L662.0 49.44 L748.01 47.48 L747.95 47.58 L834.03 44.75 L833.96 44.77 L920.02 46.02" fill="none" stroke="#f0eee6" stroke-width="2.4" stroke-linecap="round" stroke-linejoin="round" opacity="0.7"/><path d="M330.04 83.97 L305.93 84.19 L305.95 84.16 L282.0 84.21 L282.04 84.23 L257.98 84.71 L257.96 84.82 L234.02 83.99M234.04 83.97 L238.8 81.97 L238.82 81.94 L243.36 79.71 L243.4 79.74 L248.25 77.4 L248.24 77.51 L252.29 75.85M234.07 83.99 L238.37 86.7 L238.39 86.8 L243.28 88.32 L243.35 88.32 L248.05 90.03 L248.02 89.98 L252.32 92.17" fill="none" stroke="#d97757" stroke-width="2.2" stroke-linecap="round" stroke-linejoin="round" opacity="1.0"/><text x="480" y="92" font-size="38" font-family="Georgia,'Iowan Old Style','Times New Roman',Times,serif" font-weight="400" fill="#f0eee6" text-anchor="middle">〔 返回 boot.menu 〕</text><path d="M359.99 90.01 L420.01 88.56 L419.98 88.62 L480.04 92.12 L479.97 92.08 L540.01 92.15 L540.01 92.11 L600.0 92.03" fill="none" stroke="#e5c07b" stroke-width="1.4" stroke-linecap="round" stroke-linejoin="round" opacity="0.55"/><text x="480" y="146" font-size="22" font-family="ui-monospace,'Cascadia Mono',Consolas,'SF Mono',monospace" font-weight="400" fill="#8A8F98" text-anchor="middle" letter-spacing="4">END OF FILE · 主机关机</text></svg>