<svg xmlns="http://www.w3.org/2000/svg" width="156" height="58" viewBox="0 0 156 58" role="img" aria-labelledby="title desc"><title id="title">MODULES section link</title><desc id="desc">Decorative dwgx.menu panel; not live telemetry.</desc><rect width="156" height="58" fill="#06020f"/><path d="M5.0 5.0 L7.0 6.17 L9.0 6.81 L11.0 6.9 L13.0 6.91 L15.0 7.13 L17.0 6.99 L19.0 7.02 L21.0 7.3 L23.0 6.92 L25.0 7.0 L27.0 7.24 L29.0 7.07 L31.0 7.21 L33.0 7.19 L35.0 7.05 L37.0 7.2 L39.0 7.24 L41.0 7.31 L43.0 7.2 L45.0 7.26 L47.0 7.17 L49.0 7.06 L51.0 7.18 L53.0 7.24 L55.0 7.37 L57.0 7.27 L59.0 7.3 L61.0 7.5 L63.0 7.32 L65.0 7.44 L67.0 7.39 L69.0 7.43 L71.0 7.31 L73.0 7.17 L75.0 7.13 L77.0 7.24 L79.0 7.15 L81.0 7.53 L83.0 7.41 L85.0 7.33 L87.0 7.2 L89.0 7.25 L91.0 7.48 L93.0 7.42 L95.0 7.45 L97.0 7.07 L99.0 7.32 L101.0 7.16 L103.0 7.38 L105.0 7.12 L107.0 7.24 L109.0 7.28 L111.0 7.36 L113.0 7.38 L115.0 7.04 L117.0 7.05 L119.0 7.25 L121.0 7.12 L123.0 7.28 L125.0 7.3 L127.0 7.09 L129.0 7.31 L131.0 7.18 L133.0 6.98 L135.0 7.03 L137.0 6.89 L139.0 7.03 L141.0 6.95 L143.0 6.98 L145.0 6.8 L147.0 6.35 L149.0 5.77 L151.0 5.0 L151.0 4.8 L149.0 4.23 L147.0 3.65 L145.0 3.2 L143.0 3.02 L141.0 3.05 L139.0 2.97 L137.0 3.11 L135.0 2.97 L133.0 3.02 L131.0 2.82 L129.0 2.69 L127.0 2.91 L125.0 2.7 L123.0 2.72 L121.0 2.88 L119.0 2.75 L117.0 2.95 L115.0 2.96 L113.0 2.62 L111.0 2.64 L109.0 2.72 L107.0 2.76 L105.0 2.88 L103.0 2.62 L101.0 2.84 L99.0 2.68 L97.0 2.93 L95.0 2.55 L93.0 2.58 L91.0 2.52 L89.0 2.75 L87.0 2.8 L85.0 2.67 L83.0 2.59 L81.0 2.47 L79.0 2.85 L77.0 2.76 L75.0 2.87 L73.0 2.83 L71.0 2.69 L69.0 2.57 L67.0 2.61 L65.0 2.56 L63.0 2.68 L61.0 2.5 L59.0 2.7 L57.0 2.73 L55.0 2.63 L53.0 2.76 L51.0 2.82 L49.0 2.94 L47.0 2.83 L45.0 2.74 L43.0 2.8 L41.0 2.69 L39.0 2.76 L37.0 2.8 L35.0 2.95 L33.0 2.81 L31.0 2.79 L29.0 2.93 L27.0 2.76 L25.0 3.0 L23.0 3.08 L21.0 2.7 L19.0 2.98 L17.0 3.01 L15.0 2.87 L13.0 3.09 L11.0 3.1 L9.0 3.19 L7.0 3.83 L5.0 4.8 Z" fill="#f0eee6" stroke="none" opacity="0.9"/><path d="M151.0 5.0 L149.16 7.0 L149.03 9.0 L148.78 11.0 L148.8 13.0 L148.65 15.0 L148.98 17.0 L148.97 19.0 L148.7 21.0 L148.81 23.0 L148.92 25.0 L148.91 27.0 L148.46 29.0 L148.64 31.0 L148.76 33.0 L148.54 35.0 L148.5 37.0 L148.8 39.0 L148.71 41.0 L148.62 43.0 L148.98 45.0 L149.02 47.0 L148.83 49.0 L149.11 51.0 L151.0 53.0 L151.2 53.0 L152.89 51.0 L153.17 49.0 L152.98 47.0 L153.02 45.0 L153.38 43.0 L153.29 41.0 L153.2 39.0 L153.5 37.0 L153.46 35.0 L153.24 33.0 L153.36 31.0 L153.54 29.0 L153.09 27.0 L153.08 25.0 L153.19 23.0 L153.3 21.0 L153.03 19.0 L153.02 17.0 L153.35 15.0 L153.2 13.0 L153.22 11.0 L152.97 9.0 L152.84 7.0 L151.2 5.0 Z" fill="#f0eee6" stroke="none" opacity="0.9"/><path d="M151.0 53.0 L149.0 51.77 L147.0 50.91 L145.0 51.08 L143.0 50.79 L141.0 51.11 L139.0 51.03 L137.0 51.06 L135.0 50.7 L133.0 50.96 L131.0 51.03 L129.0 50.84 L127.0 50.86 L125.0 50.87 L123.0 50.77 L121.0 50.85 L119.0 50.99 L117.0 50.84 L115.0 50.97 L113.0 50.91 L111.0 50.57 L109.0 50.77 L107.0 50.84 L105.0 50.58 L103.0 50.69 L101.0 50.55 L99.0 50.91 L97.0 50.52 L95.0 50.69 L93.0 50.57 L91.0 50.7 L89.0 50.47 L87.0 50.5 L85.0 50.67 L83.0 50.59 L81.0 50.56 L79.0 50.59 L77.0 50.83 L75.0 50.71 L73.0 50.55 L71.0 50.72 L69.0 50.77 L67.0 50.57 L65.0 50.57 L63.0 50.48 L61.0 50.85 L59.0 50.9 L57.0 50.51 L55.0 50.64 L53.0 50.56 L51.0 50.74 L49.0 50.71 L47.0 50.96 L45.0 50.69 L43.0 50.83 L41.0 50.85 L39.0 50.81 L37.0 50.73 L35.0 50.7 L33.0 50.93 L31.0 50.99 L29.0 50.67 L27.0 51.0 L25.0 50.91 L23.0 50.92 L21.0 50.94 L19.0 51.02 L17.0 51.01 L15.0 50.84 L13.0 51.06 L11.0 51.32 L9.0 51.81 L7.0 52.27 L5.0 53.0 L5.0 53.2 L7.0 53.73 L9.0 54.19 L11.0 54.68 L13.0 54.94 L15.0 55.16 L17.0 54.99 L19.0 54.98 L21.0 55.06 L23.0 55.08 L25.0 55.09 L27.0 55.0 L29.0 55.33 L31.0 55.01 L33.0 55.07 L35.0 55.3 L37.0 55.27 L39.0 55.19 L41.0 55.15 L43.0 55.17 L45.0 55.31 L47.0 55.04 L49.0 55.29 L51.0 55.26 L53.0 55.44 L55.0 55.36 L57.0 55.49 L59.0 55.1 L61.0 55.15 L63.0 55.52 L65.0 55.43 L67.0 55.43 L69.0 55.23 L71.0 55.28 L73.0 55.45 L75.0 55.29 L77.0 55.17 L79.0 55.41 L81.0 55.44 L83.0 55.41 L85.0 55.33 L87.0 55.5 L89.0 55.53 L91.0 55.3 L93.0 55.43 L95.0 55.31 L97.0 55.48 L99.0 55.09 L101.0 55.45 L103.0 55.31 L105.0 55.42 L107.0 55.16 L109.0 55.23 L111.0 55.43 L113.0 55.09 L115.0 55.03 L117.0 55.16 L119.0 55.01 L121.0 55.15 L123.0 55.23 L125.0 55.13 L127.0 55.14 L129.0 55.16 L131.0 54.97 L133.0 55.04 L135.0 55.3 L137.0 54.94 L139.0 54.97 L141.0 54.89 L143.0 55.21 L145.0 54.92 L147.0 55.09 L149.0 54.23 L151.0 53.2 Z" fill="#f0eee6" stroke="none" opacity="0.9"/><path d="M5.0 53.0 L7.13 51.0 L7.18 49.0 L6.95 47.0 L7.27 45.0 L7.36 43.0 L7.29 41.0 L7.33 39.0 L7.06 37.0 L7.17 35.0 L7.36 33.0 L7.09 31.0 L7.38 29.0 L7.23 27.0 L7.32 25.0 L7.31 23.0 L7.22 21.0 L7.1 19.0 L7.12 17.0 L7.17 15.0 L7.22 13.0 L7.07 11.0 L7.08 9.0 L6.8 7.0 L5.0 5.0 L4.8 5.0 L3.2 7.0 L2.92 9.0 L2.93 11.0 L2.78 13.0 L2.83 15.0 L2.88 17.0 L2.9 19.0 L2.78 21.0 L2.69 23.0 L2.68 25.0 L2.77 27.0 L2.62 29.0 L2.91 31.0 L2.64 33.0 L2.83 35.0 L2.94 37.0 L2.67 39.0 L2.71 41.0 L2.64 43.0 L2.73 45.0 L3.05 47.0 L2.82 49.0 L2.87 51.0 L4.8 53.0 Z" fill="#f0eee6" stroke="none" opacity="0.9"/><path d="M5.0 5.0 L6.72 6.4 L8.7 6.72 L10.74 6.81 L12.0 6.68 L12.05 6.49 L10.93 5.99 L9.08 5.14 L7.17 4.53 L5.05 4.81 Z" fill="#f0eee6" stroke="none" opacity="0.76"/><path d="M151.0 5.0 L148.83 4.53 L146.92 5.14 L145.07 5.99 L144.0 6.68 L144.05 6.87 L145.26 6.81 L147.3 6.72 L149.28 6.4 L151.05 5.19 Z" fill="#f0eee6" stroke="none" opacity="0.76"/><path d="M151.0 53.0 L149.28 51.6 L147.3 51.28 L145.26 51.19 L144.0 51.32 L143.95 51.51 L145.07 52.01 L146.92 52.86 L148.83 53.47 L150.95 53.19 Z" fill="#f0eee6" stroke="none" opacity="0.76"/><path d="M5.0 53.0 L7.17 53.47 L9.08 52.86 L10.93 52.01 L12.0 51.32 L11.95 51.13 L10.74 51.19 L8.7 51.28 L6.72 51.6 L4.95 52.81 Z" fill="#f0eee6" stroke="none" opacity="0.76"/><text x="18" y="30" font-size="13" font-family="ui-monospace,'Cascadia Mono',Consolas,'SF Mono',monospace" font-weight="400" fill="#e5c07b" text-anchor="start" letter-spacing="1">04</text><text x="140" y="30" font-size="14" font-family="ui-monospace,'Cascadia Mono',Consolas,'SF Mono',monospace" font-weight="400" fill="#f0eee6" text-anchor="end" letter-spacing="1.5">MODULES</text><path d="M18.0 42.0 L20.0 43.1 L22.0 44.04 L24.0 44.35 L26.0 44.27 L28.0 44.1 L30.0 44.14 L32.0 44.43 L34.0 44.24 L36.0 44.32 L38.0 44.63 L40.0 44.51 L42.0 44.43 L44.0 44.45 L46.0 44.63 L48.0 44.47 L50.0 44.73 L52.0 44.45 L54.0 44.59 L56.0 44.52 L58.0 44.64 L60.0 44.28 L62.0 44.58 L64.0 44.62 L66.0 44.28 L68.0 44.24 L70.0 44.42 L72.0 44.66 L74.0 44.33 L76.0 44.79 L78.0 44.27 L82.0 44.47 L84.0 44.34 L86.0 44.39 L88.0 44.5 L90.0 44.37 L92.0 44.56 L94.0 44.37 L96.0 44.5 L98.0 44.56 L100.0 44.4 L102.0 44.74 L104.0 44.6 L106.0 44.22 L108.0 44.32 L110.0 44.05 L112.0 43.76 L114.0 43.99 L116.0 43.74 L118.0 43.47 L120.0 43.47 L122.0 43.23 L124.0 43.17 L126.0 43.12 L128.0 43.0 L130.0 42.74 L132.0 42.58 L134.0 42.44 L136.0 42.26 L138.0 42.0 L138.0 41.8 L136.0 41.74 L134.0 41.56 L132.0 41.42 L130.0 41.26 L128.0 41.0 L126.0 40.88 L124.0 40.83 L122.0 40.77 L120.0 40.53 L118.0 40.53 L116.0 40.26 L114.0 40.01 L112.0 40.24 L110.0 39.95 L108.0 39.68 L106.0 39.78 L104.0 39.4 L102.0 39.26 L100.0 39.6 L98.0 39.44 L96.0 39.5 L94.0 39.63 L92.0 39.44 L90.0 39.63 L88.0 39.5 L86.0 39.61 L84.0 39.66 L82.0 39.53 L78.0 39.73 L76.0 39.21 L74.0 39.67 L72.0 39.34 L70.0 39.58 L68.0 39.76 L66.0 39.72 L64.0 39.38 L62.0 39.42 L60.0 39.72 L58.0 39.36 L56.0 39.48 L54.0 39.41 L52.0 39.55 L50.0 39.27 L48.0 39.53 L46.0 39.37 L44.0 39.55 L42.0 39.57 L40.0 39.49 L38.0 39.37 L36.0 39.68 L34.0 39.76 L32.0 39.57 L30.0 39.86 L28.0 39.9 L26.0 39.73 L24.0 39.65 L22.0 39.96 L20.0 40.9 L18.0 41.8 Z" fill="#d97757" stroke="none" opacity="0.8"/></svg>