<svg xmlns="http://www.w3.org/2000/svg" width="960" height="126" viewBox="0 0 960 126" role="img" aria-labelledby="title desc"><title id="title">Touhou danmaku ornament for the Phantasm feature</title><desc id="desc">Decorative dwgx.menu panel; not live telemetry.</desc><rect width="960" height="126" fill="#06020f"/><path d="M109.0 78.0 L112.91 78.09 L115.24 76.61 L116.71 74.26 L119.01 72.73 L120.84 70.75 L122.46 68.55 L124.44 66.71 L126.48 64.93 L128.79 63.42 L130.96 61.78 L132.0 59.0 L134.12 57.3 L136.2 55.56 L137.87 53.41 L139.62 51.34 L141.29 49.2 L142.83 46.92 L144.32 44.59 L146.05 42.5 L147.63 40.27 L149.0 38.0 L148.86 37.86 L146.73 39.37 L144.5 40.95 L142.41 42.68 L140.08 44.17 L137.8 45.71 L135.66 47.38 L133.59 49.13 L131.44 50.8 L129.7 52.88 L128.0 55.0 L125.22 56.04 L123.58 58.21 L122.07 60.52 L120.29 62.56 L118.45 64.54 L116.25 66.16 L114.27 67.99 L112.74 70.29 L110.39 71.76 L108.91 74.09 L108.86 77.86 Z" fill="#e5c07b" stroke="none" opacity="0.5"/><path d="M889.0 97.0 L892.8 96.98 L895.36 95.72 L897.08 93.62 L899.16 91.89 L900.87 89.78 L902.94 88.03 L904.65 85.92 L906.38 83.83 L909.04 82.68 L910.9 80.72 L912.75 78.75 L913.88 76.06 L915.8 74.16 L917.21 71.75 L918.85 69.57 L920.51 67.41 L921.93 65.02 L923.0 63.0 L922.86 62.86 L920.98 64.07 L918.59 65.49 L916.43 67.15 L914.25 68.79 L911.84 70.2 L909.94 72.12 L907.25 73.25 L905.28 75.1 L903.32 76.96 L902.17 79.62 L900.08 81.35 L897.97 83.06 L896.22 85.13 L894.11 86.84 L892.38 88.92 L890.28 90.64 L889.02 93.2 L888.86 96.86 Z" fill="#d97757" stroke="none" opacity="0.62"/><path d="M852.0 91.5 L855.83 91.52 L857.92 89.78 L859.87 87.91 L861.81 86.03 L864.3 84.71 L866.4 82.99 L867.27 80.04 L869.27 78.22 L870.42 75.56 L871.8 73.12 L873.0 70.5 L872.86 70.36 L870.38 71.7 L867.94 73.08 L865.28 74.23 L863.46 76.23 L860.51 77.1 L858.79 79.2 L857.47 81.69 L855.59 83.63 L853.72 85.58 L851.98 87.67 L851.86 91.36 Z" fill="#d97757" stroke="none" opacity="0.74"/><path d="M600.0 63.0 L604.24 63.42 L606.14 61.5 L608.16 59.7 L610.38 58.1 L611.63 55.54 L614.03 54.12 L615.66 51.93 L617.84 50.3 L619.74 48.38 L621.26 46.07 L623.83 44.83 L625.5 42.68 L626.9 40.26 L628.33 37.88 L630.24 35.96 L631.7 33.6 L633.28 31.36 L634.77 29.04 L636.0 27.0 L635.86 26.86 L633.96 28.23 L631.64 29.72 L629.4 31.3 L627.04 32.76 L625.12 34.67 L622.74 36.1 L620.32 37.5 L618.17 39.17 L616.93 41.74 L614.62 43.26 L612.7 45.16 L611.07 47.34 L608.88 48.97 L607.46 51.37 L604.9 52.62 L603.3 54.84 L601.5 56.86 L599.58 58.76 L599.86 62.86 Z" fill="#e5c07b" stroke="none" opacity="0.86"/><path d="M354.0 84.5 L358.11 84.79 L359.72 82.58 L362.41 81.46 L363.92 79.15 L366.25 77.66 L367.46 75.05 L369.37 73.14 L371.29 71.24 L373.31 69.44 L375.93 68.24 L377.89 66.39 L379.31 63.99 L381.41 62.27 L382.53 59.57 L384.53 57.75 L386.19 55.59 L387.86 53.45 L389.4 51.17 L391.14 49.09 L392.96 47.09 L394.5 44.81 L395.0 43.5 L394.86 43.36 L393.69 44.0 L391.41 45.54 L389.41 47.36 L387.33 49.1 L385.05 50.64 L382.91 52.31 L380.75 53.97 L378.93 55.97 L376.23 57.09 L374.51 59.19 L372.11 60.61 L370.26 62.57 L369.06 65.19 L367.26 67.21 L365.36 69.13 L363.45 71.04 L360.84 72.25 L359.35 74.58 L357.04 76.09 L355.92 78.78 L353.71 80.39 L353.86 84.36 Z" fill="#d97757" stroke="none" opacity="0.5"/><path d="M49.0 54.5 L53.19 54.87 L54.96 52.82 L56.89 50.93 L58.87 49.1 L60.64 47.04 L62.92 45.51 L64.92 43.69 L67.17 42.12 L68.16 39.29 L70.51 37.83 L72.21 35.71 L73.68 33.36 L75.72 31.58 L77.46 29.5 L78.7 26.92 L80.36 24.77 L82.06 22.65 L82.0 21.5 L81.86 21.36 L80.85 21.44 L78.73 23.14 L76.58 24.8 L74.0 26.04 L71.92 27.78 L70.14 29.82 L67.79 31.29 L65.67 32.99 L64.21 35.34 L61.38 36.33 L59.81 38.58 L57.99 40.58 L56.46 42.86 L54.4 44.63 L52.57 46.61 L50.68 48.54 L48.63 50.31 L48.86 54.36 Z" fill="#d97757" stroke="none" opacity="0.62"/><path d="M300.0 74.5 L303.83 74.51 L306.27 73.14 L307.77 70.82 L310.37 69.6 L312.23 67.64 L314.09 65.68 L316.24 64.01 L317.94 61.89 L319.43 59.57 L321.98 58.29 L323.21 55.71 L325.69 54.37 L326.82 51.68 L328.81 49.86 L330.25 47.47 L331.93 45.34 L333.44 43.02 L335.14 40.91 L336.73 38.68 L337.0 37.5 L336.86 37.36 L335.82 37.77 L333.59 39.36 L331.48 41.06 L329.16 42.57 L327.03 44.25 L324.64 45.69 L322.82 47.68 L320.13 48.81 L318.79 51.29 L316.21 52.52 L314.93 55.07 L312.61 56.56 L310.49 58.26 L308.82 60.41 L306.86 62.27 L304.9 64.13 L303.68 66.73 L301.36 68.23 L299.99 70.67 L299.86 74.36 Z" fill="#e5c07b" stroke="none" opacity="0.74"/><path d="M399.0 65.0 L403.19 65.38 L404.85 63.21 L406.71 61.26 L408.58 59.3 L411.16 58.07 L412.49 55.58 L414.67 53.94 L416.28 51.73 L418.52 50.16 L420.55 48.37 L422.28 46.27 L424.37 44.55 L426.24 42.6 L427.53 40.07 L429.44 38.17 L430.89 35.8 L432.56 33.64 L434.28 31.55 L435.8 29.25 L437.0 27.0 L436.86 26.86 L434.75 28.2 L432.45 29.72 L430.36 31.44 L428.2 33.11 L425.83 34.56 L423.93 36.47 L421.4 37.76 L419.45 39.63 L417.73 41.72 L415.63 43.45 L413.84 45.48 L412.27 47.72 L410.06 49.33 L408.42 51.51 L405.93 52.84 L404.7 55.42 L402.74 57.29 L400.79 59.15 L398.62 60.81 L398.86 64.86 Z" fill="#d97757" stroke="none" opacity="0.86"/><path d="M496.0 94.5 L500.23 94.91 L501.71 92.57 L504.41 91.46 L505.61 88.83 L508.25 87.66 L509.42 85.01 L511.88 83.66 L513.74 81.69 L515.19 79.33 L517.14 77.45 L519.75 76.25 L521.71 74.39 L522.85 71.71 L524.54 69.58 L526.25 67.47 L528.27 65.68 L529.85 63.44 L531.59 61.36 L533.08 59.04 L534.69 56.82 L535.0 55.5 L534.86 55.36 L533.68 55.81 L531.46 57.42 L529.14 58.91 L527.06 60.65 L524.82 62.23 L523.03 64.25 L520.92 65.96 L518.79 67.65 L516.11 68.79 L514.25 70.75 L513.05 73.36 L511.17 75.31 L508.81 76.76 L506.84 78.62 L505.49 81.08 L502.84 82.25 L501.67 84.89 L499.04 86.09 L497.93 88.79 L495.59 90.27 L495.86 94.36 Z" fill="#d97757" stroke="none" opacity="0.5"/><path d="M133.0 76.0 L137.19 76.37 L138.63 73.99 L141.37 72.92 L142.69 70.42 L145.35 69.26 L147.16 67.25 L148.93 65.2 L150.29 62.74 L152.51 61.14 L154.12 58.93 L156.01 57.01 L158.11 55.29 L160.41 53.78 L162.07 51.61 L163.39 49.12 L165.22 47.12 L166.8 44.89 L168.38 42.65 L169.95 40.4 L171.62 38.25 L173.0 36.0 L172.86 35.86 L170.75 37.38 L168.6 39.05 L166.35 40.62 L164.11 42.2 L161.88 43.78 L159.88 45.61 L157.39 46.93 L155.22 48.59 L153.71 50.89 L151.99 52.99 L150.07 54.88 L147.86 56.49 L146.26 58.71 L143.8 60.07 L141.75 61.84 L139.74 63.65 L138.58 66.31 L136.08 67.63 L135.01 70.37 L132.63 71.81 L132.86 75.86 Z" fill="#e5c07b" stroke="none" opacity="0.62"/><path d="M92.0 47.0 L96.08 47.26 L98.16 45.52 L99.66 43.21 L101.55 41.27 L103.84 39.74 L106.34 38.43 L108.13 36.4 L109.45 33.9 L112.06 32.7 L113.76 30.57 L115.32 28.32 L116.77 25.95 L118.75 24.11 L120.46 22.0 L122.25 19.98 L123.81 17.72 L125.35 15.43 L126.79 13.06 L128.0 11.0 L127.86 10.86 L125.94 12.21 L123.57 13.65 L121.28 15.19 L119.02 16.75 L117.0 18.54 L114.89 20.25 L113.05 22.23 L110.68 23.68 L108.43 25.24 L106.3 26.94 L105.1 29.55 L102.6 30.87 L100.57 32.66 L99.26 35.16 L97.73 37.45 L95.79 39.34 L93.48 40.84 L91.74 42.92 L91.86 46.86 Z" fill="#d97757" stroke="none" opacity="0.74"/><path d="M511.0 69.5 L514.76 69.44 L516.78 67.65 L518.76 65.81 L520.77 64.0 L522.98 62.38 L524.32 59.91 L525.61 57.38 L527.1 55.05 L528.0 52.5 L527.86 52.36 L525.45 53.4 L523.12 54.89 L520.59 56.18 L518.12 57.52 L516.5 59.73 L514.69 61.74 L512.85 63.72 L511.06 65.74 L510.86 69.36 Z" fill="#d97757" stroke="none" opacity="0.86"/><path d="M551.0 54.0 L555.29 54.47 L557.32 52.68 L559.04 50.58 L560.74 48.47 L562.65 46.56 L565.17 45.26 L566.51 42.78 L568.05 40.5 L569.62 38.25 L571.45 36.27 L572.83 33.82 L573.0 32.0 L572.86 31.86 L571.18 32.17 L568.73 33.55 L566.75 35.38 L564.5 36.95 L562.22 38.49 L559.74 39.83 L558.44 42.35 L556.53 44.26 L554.42 45.96 L552.32 47.68 L550.53 49.71 L550.86 53.86 Z" fill="#e5c07b" stroke="none" opacity="0.5"/><path d="M267.0 62.0 L271.0 62.19 L273.26 60.62 L275.17 58.72 L277.37 57.1 L278.9 54.81 L280.82 52.91 L282.46 50.73 L285.2 49.65 L286.22 46.85 L288.24 45.06 L290.02 43.02 L292.08 41.26 L294.54 39.9 L295.56 37.11 L297.57 35.3 L299.0 32.91 L300.54 30.63 L302.5 28.76 L304.05 26.5 L305.65 24.28 L307.0 22.0 L306.86 21.86 L304.72 23.35 L302.5 24.95 L300.24 26.5 L298.37 28.46 L296.09 30.0 L293.7 31.43 L291.89 33.44 L289.1 34.46 L287.74 36.92 L285.98 38.98 L283.94 40.76 L282.15 42.78 L279.35 43.8 L278.27 46.54 L276.09 48.18 L274.19 50.1 L271.9 51.63 L270.28 53.83 L268.38 55.74 L266.81 58.0 L266.86 61.86 Z" fill="#d97757" stroke="none" opacity="0.62"/><path d="M313.0 81.5 L317.0 81.68 L318.74 79.6 L321.31 78.35 L322.73 75.96 L325.27 74.68 L326.98 72.57 L329.21 70.98 L330.43 68.38 L332.41 66.54 L334.46 64.77 L336.27 62.77 L338.17 60.85 L339.91 58.77 L341.27 56.31 L342.96 54.19 L344.52 51.93 L346.03 49.62 L346.0 48.5 L345.86 48.36 L344.88 48.47 L342.57 49.98 L340.31 51.54 L338.19 53.23 L335.73 54.59 L333.65 56.33 L331.73 58.23 L329.73 60.04 L327.96 62.09 L326.12 64.07 L323.52 65.29 L321.93 67.52 L319.82 69.23 L318.54 71.77 L316.15 73.19 L314.9 75.76 L312.82 77.5 L312.86 81.36 Z" fill="#d97757" stroke="none" opacity="0.74"/><path d="M766.0 65.0 L770.0 65.19 L771.72 63.08 L773.91 61.46 L775.86 59.59 L778.17 58.08 L779.5 55.59 L781.89 54.16 L783.33 51.78 L785.16 49.8 L787.08 47.9 L789.3 46.3 L791.27 44.45 L792.38 41.75 L794.26 39.8 L795.65 37.38 L797.47 35.37 L798.9 32.98 L800.0 31.0 L799.86 30.86 L798.02 32.1 L795.63 33.53 L793.62 35.35 L791.2 36.74 L789.25 38.62 L786.55 39.73 L784.7 41.7 L783.1 43.92 L781.2 45.84 L779.22 47.67 L776.84 49.11 L775.41 51.5 L772.92 52.83 L771.41 55.14 L769.54 57.09 L767.92 59.28 L765.81 61.0 L765.86 64.86 Z" fill="#e5c07b" stroke="none" opacity="0.86"/><path d="M826.0 67.0 L829.7 66.89 L831.89 65.25 L834.05 63.59 L835.69 61.42 L837.62 59.53 L839.59 57.68 L841.74 56.01 L842.93 53.38 L844.4 51.04 L845.81 48.63 L846.0 47.0 L845.86 46.86 L844.37 47.19 L841.96 48.6 L839.62 50.07 L836.99 51.26 L835.32 53.41 L833.47 55.38 L831.58 57.31 L829.41 58.95 L827.75 61.11 L826.11 63.3 L825.86 66.86 Z" fill="#d97757" stroke="none" opacity="0.5"/><path d="M547.0 97.0 L551.25 97.43 L553.02 95.39 L555.23 93.78 L557.34 92.07 L558.68 89.59 L560.59 87.68 L562.29 85.56 L563.79 83.24 L565.25 80.89 L566.79 78.61 L567.0 77.0 L566.86 76.86 L565.39 77.21 L563.11 78.75 L560.76 80.21 L558.44 81.71 L556.32 83.41 L554.41 85.32 L551.93 86.66 L550.22 88.77 L548.61 90.98 L546.57 92.75 L546.86 96.86 Z" fill="#d97757" stroke="none" opacity="0.62"/><path d="M555.0 64.0 L559.39 64.57 L561.42 62.78 L563.31 60.85 L565.51 59.24 L567.22 57.13 L568.75 54.84 L569.72 51.99 L571.13 49.58 L571.0 48.0 L570.86 47.86 L569.42 47.87 L567.01 49.28 L564.16 50.25 L561.87 51.78 L559.76 53.49 L558.15 55.69 L556.22 57.58 L554.43 59.61 L554.86 63.86 Z" fill="#e5c07b" stroke="none" opacity="0.74"/><path d="M734.0 67.5 L738.24 67.92 L739.88 65.74 L741.96 64.0 L743.73 61.96 L746.34 60.75 L747.51 58.1 L749.48 56.25 L750.44 53.4 L751.91 51.05 L753.0 48.5 L752.86 48.36 L750.45 49.59 L748.1 51.06 L745.25 52.02 L743.4 53.99 L740.75 55.16 L739.54 57.77 L737.5 59.54 L735.76 61.62 L733.58 63.26 L733.86 67.36 Z" fill="#d97757" stroke="none" opacity="0.86"/><path d="M804.0 70.5 L808.43 71.11 L810.02 68.89 L812.37 67.42 L814.58 65.8 L815.58 62.98 L817.18 60.77 L818.65 58.43 L820.3 56.26 L821.0 53.5 L820.86 53.36 L818.24 54.2 L816.07 55.85 L813.73 57.32 L811.52 58.92 L808.7 59.92 L807.08 62.13 L805.61 64.48 L803.39 66.07 L803.86 70.36 Z" fill="#d97757" stroke="none" opacity="0.5"/><path d="M766.0 78.0 L770.18 78.37 L772.15 76.52 L774.25 74.79 L776.39 73.11 L778.31 71.22 L779.93 69.02 L782.05 67.32 L784.07 65.53 L785.21 62.85 L786.77 60.59 L788.86 58.85 L790.52 56.7 L791.82 54.18 L793.25 51.79 L794.0 50.0 L793.86 49.86 L792.21 50.75 L789.82 52.18 L787.3 53.48 L785.15 55.14 L783.41 57.23 L781.15 58.79 L778.47 59.93 L776.68 61.95 L774.98 64.07 L772.78 65.69 L770.89 67.61 L769.21 69.75 L767.48 71.85 L765.63 73.82 L765.86 77.86 Z" fill="#e5c07b" stroke="none" opacity="0.62"/><path d="M213.0 58.5 L217.48 59.16 L219.35 57.22 L220.86 54.9 L223.39 53.62 L224.55 50.95 L227.09 49.68 L228.4 47.17 L230.98 45.94 L232.28 43.42 L233.67 40.99 L235.07 38.56 L236.46 36.14 L236.0 35.5 L235.86 35.36 L235.36 35.04 L232.94 36.43 L230.51 37.83 L228.08 39.22 L225.56 40.52 L224.33 43.1 L221.82 44.41 L220.55 46.95 L217.88 48.11 L216.6 50.64 L214.28 52.15 L212.34 54.02 L212.86 58.36 Z" fill="#d97757" stroke="none" opacity="0.74"/><path d="M836.0 65.0 L840.25 65.43 L841.84 63.21 L843.64 61.18 L845.67 59.39 L848.27 58.18 L849.74 55.83 L851.98 54.25 L854.19 52.64 L855.31 49.95 L857.6 48.42 L859.39 46.39 L861.06 44.24 L862.25 41.61 L863.88 39.43 L865.56 37.28 L866.98 34.88 L868.0 33.0 L867.86 32.86 L866.12 34.02 L863.72 35.44 L861.57 37.12 L859.39 38.75 L856.76 39.94 L854.61 41.61 L852.58 43.4 L851.05 45.69 L848.36 46.81 L846.75 49.02 L845.17 51.26 L842.82 52.73 L841.61 55.33 L839.82 57.36 L837.79 59.16 L835.57 60.75 L835.86 64.86 Z" fill="#d97757" stroke="none" opacity="0.86"/><path d="M207.0 43.5 L211.53 44.21 L213.28 42.14 L215.18 40.23 L217.03 38.26 L218.93 36.34 L221.1 34.69 L223.2 32.97 L224.63 30.58 L226.78 28.91 L228.68 27.0 L229.63 24.12 L231.27 21.95 L232.94 19.8 L234.5 17.54 L236.12 15.34 L236.0 14.5 L235.86 14.36 L235.16 14.38 L232.96 16.0 L230.7 17.56 L228.55 19.23 L226.38 20.87 L223.5 21.82 L221.59 23.72 L219.92 25.87 L217.53 27.3 L215.81 29.4 L214.16 31.57 L212.24 33.47 L210.27 35.32 L208.36 37.22 L206.29 38.97 L206.86 43.36 Z" fill="#e5c07b" stroke="none" opacity="0.5"/><path d="M619.0 58.0 L623.36 58.54 L624.89 56.25 L627.16 54.71 L629.26 52.98 L631.11 51.02 L632.5 48.59 L634.47 46.74 L635.93 44.38 L637.29 41.93 L638.69 39.51 L639.0 38.0 L638.86 37.86 L637.49 38.31 L635.07 39.71 L632.62 41.07 L630.26 42.53 L628.41 44.5 L625.98 45.89 L624.02 47.74 L622.29 49.84 L620.75 52.11 L618.46 53.64 L618.86 57.86 Z" fill="#d97757" stroke="none" opacity="0.62"/><path d="M401.0 95.0 L405.36 95.54 L406.64 93.0 L408.62 91.17 L411.13 89.86 L413.21 88.12 L414.96 86.05 L416.8 84.07 L419.07 82.52 L420.08 79.72 L422.18 78.0 L423.17 75.16 L424.94 73.12 L426.36 70.72 L427.0 69.0 L426.86 68.86 L425.28 69.64 L422.88 71.06 L420.84 72.83 L418.0 73.82 L416.28 75.92 L413.48 76.93 L411.93 79.2 L409.95 81.04 L407.88 82.79 L406.14 84.87 L404.83 87.38 L403.0 89.36 L400.46 90.64 L400.86 94.86 Z" fill="#d97757" stroke="none" opacity="0.74"/><path d="M190.0 105.0 L193.88 105.06 L195.93 103.3 L198.37 101.91 L199.88 99.6 L201.88 97.79 L203.84 95.93 L205.52 93.79 L207.38 91.83 L209.22 89.85 L211.98 88.79 L213.58 86.57 L215.41 84.59 L217.02 82.38 L218.62 80.16 L219.94 77.67 L221.95 75.85 L223.59 73.68 L225.2 71.47 L226.72 69.17 L228.0 67.0 L227.86 66.86 L225.83 68.28 L223.53 69.8 L221.32 71.41 L219.15 73.05 L217.33 75.06 L214.84 76.38 L212.62 77.98 L210.41 79.59 L208.43 81.42 L206.21 83.02 L205.15 85.78 L203.17 87.62 L201.21 89.48 L199.07 91.16 L197.21 93.12 L195.4 95.12 L193.09 96.63 L191.7 99.07 L189.94 101.12 L189.86 104.86 Z" fill="#e5c07b" stroke="none" opacity="0.86"/><path d="M185.0 41.0 L188.95 41.13 L190.95 39.32 L192.94 37.48 L194.61 35.34 L196.93 33.84 L198.65 31.74 L200.69 29.96 L201.75 27.21 L203.43 25.07 L204.89 22.7 L205.0 21.0 L204.86 20.86 L203.3 21.11 L200.93 22.57 L198.79 24.25 L196.04 25.31 L194.26 27.35 L192.16 29.07 L190.66 31.39 L188.52 33.06 L186.68 35.05 L184.87 37.05 L184.86 40.86 Z" fill="#d97757" stroke="none" opacity="0.5"/><path d="M763.0 57.0 L766.97 57.15 L769.44 55.81 L771.07 53.62 L772.67 51.39 L775.25 50.15 L776.39 47.48 L778.87 46.14 L780.54 44.0 L782.36 41.99 L784.08 39.89 L786.69 38.69 L787.71 35.89 L789.62 33.98 L791.6 32.14 L793.13 29.86 L794.75 27.66 L796.24 25.33 L797.85 23.12 L799.0 21.0 L798.86 20.86 L796.88 22.15 L794.67 23.76 L792.34 25.25 L790.14 26.87 L787.86 28.4 L786.02 30.38 L784.11 32.29 L781.31 33.31 L780.11 35.92 L778.01 37.64 L776.0 39.46 L773.86 41.13 L772.52 43.61 L769.85 44.75 L768.61 47.33 L766.38 48.93 L764.19 50.56 L762.85 53.03 L762.86 56.86 Z" fill="#d97757" stroke="none" opacity="0.62"/><path d="M24.0 74.0 L33.5 74.35 L43.0 74.67 L52.5 74.84 L62.0 74.98 L71.5 75.21 L81.0 75.28 L90.5 75.36 L100.0 75.25 L109.5 75.26 L119.0 75.46 L128.5 75.44 L138.0 75.52 L147.5 75.22 L157.0 75.54 L166.5 75.4 L176.0 75.48 L185.5 75.43 L195.0 75.46 L204.5 75.5 L214.0 75.38 L223.5 75.36 L233.0 75.5 L242.5 75.38 L252.0 75.43 L261.5 75.6 L271.0 75.58 L280.5 75.29 L290.0 75.42 L299.5 75.31 L309.0 75.44 L318.5 75.63 L328.0 75.61 L337.5 75.64 L347.0 75.36 L356.5 75.49 L366.0 75.37 L375.5 75.43 L385.0 75.43 L394.5 75.44 L404.0 75.56 L413.5 75.68 L423.0 75.36 L432.5 75.56 L442.0 75.41 L451.5 75.47 L461.0 75.41 L470.5 75.62 L480.0 75.39 L499.0 75.58 L508.5 75.42 L518.0 75.58 L527.5 75.37 L537.0 75.68 L546.5 75.4 L556.0 75.61 L565.5 75.64 L575.0 75.57 L584.5 75.61 L594.0 75.56 L603.5 75.42 L613.0 75.39 L622.5 75.64 L632.0 75.35 L641.5 75.55 L651.0 75.52 L660.5 75.42 L670.0 75.63 L679.5 75.53 L689.0 75.32 L698.5 75.37 L708.0 75.52 L717.5 75.45 L727.0 75.53 L736.5 75.45 L746.0 75.37 L755.5 75.53 L765.0 75.5 L774.5 75.41 L784.0 75.56 L793.5 75.28 L803.0 75.52 L812.5 75.36 L822.0 75.24 L831.5 75.46 L841.0 75.22 L850.5 75.4 L860.0 75.47 L869.5 75.2 L879.0 75.05 L888.5 74.97 L898.0 74.83 L907.5 74.6 L917.0 74.48 L926.5 74.3 L936.0 74.0 L936.0 73.8 L926.5 73.7 L917.0 73.52 L907.5 73.4 L898.0 73.17 L888.5 73.03 L879.0 72.95 L869.5 72.8 L860.0 72.53 L850.5 72.6 L841.0 72.78 L831.5 72.54 L822.0 72.76 L812.5 72.64 L803.0 72.48 L793.5 72.72 L784.0 72.44 L774.5 72.59 L765.0 72.5 L755.5 72.47 L746.0 72.63 L736.5 72.55 L727.0 72.47 L717.5 72.55 L708.0 72.48 L698.5 72.63 L689.0 72.68 L679.5 72.47 L670.0 72.37 L660.5 72.58 L651.0 72.48 L641.5 72.45 L632.0 72.65 L622.5 72.36 L613.0 72.61 L603.5 72.58 L594.0 72.44 L584.5 72.39 L575.0 72.43 L565.5 72.36 L556.0 72.39 L546.5 72.6 L537.0 72.32 L527.5 72.63 L518.0 72.42 L508.5 72.58 L499.0 72.42 L480.0 72.61 L470.5 72.38 L461.0 72.59 L451.5 72.53 L442.0 72.59 L432.5 72.44 L423.0 72.64 L413.5 72.32 L404.0 72.44 L394.5 72.56 L385.0 72.57 L375.5 72.57 L366.0 72.63 L356.5 72.51 L347.0 72.64 L337.5 72.36 L328.0 72.39 L318.5 72.37 L309.0 72.56 L299.5 72.69 L290.0 72.58 L280.5 72.71 L271.0 72.42 L261.5 72.4 L252.0 72.57 L242.5 72.62 L233.0 72.5 L223.5 72.64 L214.0 72.62 L204.5 72.5 L195.0 72.54 L185.5 72.57 L176.0 72.52 L166.5 72.6 L157.0 72.46 L147.5 72.78 L138.0 72.48 L128.5 72.56 L119.0 72.54 L109.5 72.74 L100.0 72.75 L90.5 72.64 L81.0 72.72 L71.5 72.79 L62.0 73.02 L52.5 73.16 L43.0 73.33 L33.5 73.65 L24.0 73.8 Z" fill="#f0eee6" stroke="none" opacity="0.35"/><text x="24" y="116" font-size="38.0" font-family="ui-monospace,'Cascadia Mono',Consolas,'SF Mono',monospace" font-weight="400" fill="#8A8F98" text-anchor="start" letter-spacing="4">幻想万華鏡 · THE MEMORIES OF PHANTASM</text></svg>